<svg width="90" height="90" viewBox="0 0 90 90" fill="none" xmlns="http://www.w3.org/2000/svg">
<path d="M52.68 46.85V15.64C52.68 12.2983 51.3525 9.09345 48.9895 6.73049C46.6265 4.36754 43.4217 3.04004 40.08 3.04004C36.7382 3.04004 33.5334 4.36754 31.1704 6.73049C28.8075 9.09345 27.48 12.2983 27.48 15.64V46.83C23.6218 49.4911 20.7144 53.3147 19.1812 57.7437C17.6481 62.1727 17.5695 66.9756 18.9569 71.4523C20.3442 75.9291 23.125 79.8459 26.894 82.6317C30.663 85.4176 35.2232 86.927 39.91 86.94L40 87H40.11C44.8198 87.0295 49.4147 85.5467 53.2189 82.7698C57.023 79.9928 59.8356 76.0683 61.2428 71.5735C62.65 67.0788 62.5776 62.251 61.0361 57.8005C59.4947 53.35 56.5657 49.5116 52.68 46.85ZM26.52 57.06C27.9016 54.6682 29.8881 52.6817 32.28 51.3C32.7595 51.0209 33.1576 50.6211 33.4348 50.1404C33.7119 49.6597 33.8585 49.1149 33.86 48.56V15.64C33.9247 14.0165 34.6152 12.4811 35.7868 11.3553C36.9584 10.2295 38.5202 9.60079 40.145 9.60079C41.7698 9.60079 43.3315 10.2295 44.5031 11.3553C45.6747 12.4811 46.3652 14.0165 46.43 15.64V48.55C46.4286 49.1056 46.5729 49.6519 46.8483 50.1344C47.1238 50.6168 47.5208 51.0188 48 51.3C50.694 52.8557 52.8663 55.1752 54.2422 57.9653C55.618 60.7554 56.1357 63.8909 55.7296 66.9752C55.3236 70.0595 54.0122 72.9542 51.9611 75.2932C49.91 77.6322 47.2114 79.3105 44.2066 80.1159C41.2017 80.9213 38.0255 80.8176 35.0796 79.8179C32.1337 78.8183 29.5503 76.9676 27.6561 74.4998C25.762 72.032 24.6421 69.058 24.4381 65.9537C24.234 62.8495 24.9551 59.7545 26.51 57.06H26.52Z" fill="#800404"/>
<path d="M40.1699 76.7898C43.4543 76.7872 46.6037 75.4826 48.928 73.1621C51.2524 70.8415 52.562 67.6942 52.5699 64.4098C52.5561 61.668 51.6397 59.007 49.9624 56.838C48.2851 54.669 45.9401 53.1128 43.2899 52.4098V22.4998C43.3141 22.0705 43.2504 21.6409 43.1028 21.2371C42.9551 20.8333 42.7267 20.4638 42.4313 20.1514C42.136 19.8389 41.78 19.5901 41.3851 19.4199C40.9903 19.2498 40.5648 19.1621 40.1349 19.1621C39.705 19.1621 39.2795 19.2498 38.8847 19.4199C38.4898 19.5901 38.1338 19.8389 37.8385 20.1514C37.5431 20.4638 37.3147 20.8333 37.167 21.2371C37.0194 21.6409 36.9557 22.0705 36.9799 22.4998V52.3698C34.0294 53.1399 31.4657 54.9695 29.778 57.5093C28.0903 60.0491 27.3969 63.1213 27.8299 66.1398C28.261 69.0901 29.7365 71.7877 31.9882 73.7422C34.2399 75.6966 37.1183 76.778 40.0999 76.7898H40.1699ZM40.1699 70.4498C38.9654 70.4498 37.788 70.0926 36.7865 69.4235C35.785 68.7543 35.0044 67.8031 34.5435 66.6903C34.0825 65.5775 33.9619 64.3531 34.1969 63.1717C34.4319 61.9904 35.0119 60.9052 35.8636 60.0535C36.7153 59.2018 37.8005 58.6218 38.9818 58.3868C40.1631 58.1518 41.3876 58.2724 42.5004 58.7334C43.6132 59.1943 44.5644 59.9749 45.2336 60.9764C45.9027 61.9779 46.2599 63.1553 46.2599 64.3598C46.2599 65.1621 46.1014 65.9565 45.7935 66.6973C45.4855 67.4381 45.0343 68.1108 44.4656 68.6767C43.8969 69.2426 43.222 69.6906 42.4797 69.9949C41.7373 70.2991 40.9422 70.4538 40.1399 70.4498H40.1699Z" fill="#800404"/>
<path d="M59 15.3698H68.79C69.6281 15.3698 70.4318 15.0369 71.0244 14.4443C71.617 13.8516 71.95 13.0479 71.95 12.2098C71.95 11.3717 71.617 10.568 71.0244 9.97535C70.4318 9.38273 69.6281 9.0498 68.79 9.0498H59C58.1619 9.0498 57.3581 9.38273 56.7655 9.97535C56.1729 10.568 55.84 11.3717 55.84 12.2098C55.84 13.0479 56.1729 13.8516 56.7655 14.4443C57.3581 15.0369 58.1619 15.3698 59 15.3698Z" fill="#800404"/>
<path d="M61 16.8701C60.1619 16.8701 59.3581 17.203 58.7655 17.7957C58.1729 18.3883 57.84 19.192 57.84 20.0301C57.84 20.8682 58.1729 21.672 58.7655 22.2646C59.3581 22.8572 60.1619 23.1901 61 23.1901H66.74C67.578 23.1901 68.3818 22.8572 68.9744 22.2646C69.567 21.672 69.9 20.8682 69.9 20.0301C69.9 19.192 69.567 18.3883 68.9744 17.7957C68.3818 17.203 67.578 16.8701 66.74 16.8701H61Z" fill="#800404"/>
<path d="M68.82 24.6999H59C58.2079 24.7631 57.4687 25.1224 56.9296 25.7061C56.3905 26.2899 56.0912 27.0553 56.0912 27.8499C56.0912 28.6445 56.3905 29.41 56.9296 29.9937C57.4687 30.5775 58.2079 30.9368 59 30.9999H68.79C69.596 30.9545 70.3541 30.6024 70.9087 30.0157C71.4633 29.429 71.7723 28.6523 71.7723 27.8449C71.7723 27.0376 71.4633 26.2609 70.9087 25.6742C70.3541 25.0875 69.596 24.7353 68.79 24.6899L68.82 24.6999Z" fill="#800404"/>
<path d="M66.73 38.84C67.5681 38.84 68.3718 38.5071 68.9644 37.9145C69.557 37.3219 69.89 36.5181 69.89 35.68C69.89 34.8419 69.557 34.0382 68.9644 33.4456C68.3718 32.8529 67.5681 32.52 66.73 32.52H61C60.1619 32.52 59.3581 32.8529 58.7655 33.4456C58.1729 34.0382 57.84 34.8419 57.84 35.68C57.84 36.5181 58.1729 37.3219 58.7655 37.9145C59.3581 38.5071 60.1619 38.84 61 38.84H66.73Z" fill="#800404"/>
<path d="M68.82 40.3501H59C58.194 40.3955 57.4359 40.7477 56.8813 41.3344C56.3267 41.9211 56.0177 42.6978 56.0177 43.5051C56.0177 44.3124 56.3267 45.0891 56.8813 45.6758C57.4359 46.2625 58.194 46.6147 59 46.6601H68.79C69.5961 46.6147 70.3542 46.2625 70.9087 45.6758C71.4633 45.0891 71.7723 44.3124 71.7723 43.5051C71.7723 42.6978 71.4633 41.9211 70.9087 41.3344C70.3542 40.7477 69.5961 40.3955 68.79 40.3501H68.82Z" fill="#800404"/>
</svg>
