<svg width="90" height="90" viewBox="0 0 90 90" fill="none" xmlns="http://www.w3.org/2000/svg">
<g clip-path="url(#clip0)">
<path d="M72.8001 -0.149902H4.2101C3.05375 -0.149902 1.94477 0.309453 1.12711 1.12711C0.309453 1.94477 -0.149902 3.05375 -0.149902 4.2101V72.8001C-0.149902 73.9564 0.309453 75.0654 1.12711 75.8831C1.94477 76.7007 3.05375 77.1601 4.2101 77.1601H72.8001C73.9574 77.1601 75.0674 76.7011 75.8866 75.8837C76.7059 75.0663 77.1674 73.9574 77.1701 72.8001V4.2101C77.1674 3.05284 76.7059 1.94388 75.8866 1.1265C75.0674 0.309131 73.9574 -0.149905 72.8001 -0.149902ZM71.1701 71.1601H5.8501V5.8501H71.1701V71.1601Z" fill="#800404"/>
<path d="M88.4201 15.4601V84.0601C88.4201 85.2164 87.9607 86.3254 87.1431 87.1431C86.3254 87.9607 85.2164 88.4201 84.0601 88.4201H15.4601C14.3038 88.4201 13.1948 87.9607 12.3771 87.1431C11.5595 86.3254 11.1001 85.2164 11.1001 84.0601V77.1601H17.1001V82.4201H82.4201V17.1001H77.1701V11.1001H84.0601C85.2164 11.1001 86.3254 11.5595 87.1431 12.3771C87.9607 13.1948 88.4201 14.3038 88.4201 15.4601Z" fill="#800404"/>
<path d="M62.92 10.5503C62.5653 10.5495 62.2139 10.6189 61.8861 10.7545C61.5583 10.8901 61.2606 11.0892 61.01 11.3403L57.46 14.8803C56.955 15.3897 56.6716 16.078 56.6716 16.7953C56.6716 17.5126 56.955 18.2009 57.46 18.7103C57.9694 19.2153 58.6577 19.4987 59.375 19.4987C60.0923 19.4987 60.7806 19.2153 61.29 18.7103L64.83 15.1603C65.2079 14.7827 65.4653 14.3015 65.5697 13.7775C65.674 13.2535 65.6205 12.7104 65.416 12.2168C65.2115 11.7233 64.8652 11.3015 64.4209 11.0048C63.9766 10.7082 63.4543 10.55 62.92 10.5503Z" fill="#800404"/>
<path d="M51.6002 10.5503C51.2455 10.5495 50.8941 10.6189 50.5663 10.7545C50.2385 10.8901 49.9407 11.0892 49.6902 11.3403L46.1402 14.8803C45.6352 15.3897 45.3518 16.078 45.3518 16.7953C45.3518 17.5126 45.6352 18.2009 46.1402 18.7103C46.6496 19.2153 47.3379 19.4987 48.0552 19.4987C48.7725 19.4987 49.4608 19.2153 49.9702 18.7103L53.5102 15.1603C53.7623 14.9102 53.9625 14.6127 54.0991 14.2849C54.2357 13.9571 54.306 13.6054 54.306 13.2503C54.306 12.8952 54.2357 12.5435 54.0991 12.2157C53.9625 11.8879 53.7623 11.5904 53.5102 11.3403C53.2596 11.0892 52.9619 10.8901 52.6341 10.7545C52.3063 10.6189 51.9549 10.5495 51.6002 10.5503Z" fill="#800404"/>
<path d="M40.2801 10.5503C39.9254 10.5495 39.574 10.6189 39.2462 10.7545C38.9184 10.8901 38.6207 11.0892 38.3701 11.3403L34.8201 14.8803C34.3151 15.3897 34.0317 16.078 34.0317 16.7953C34.0317 17.5126 34.3151 18.2009 34.8201 18.7103C35.3295 19.2153 36.0178 19.4987 36.7351 19.4987C37.4524 19.4987 38.1407 19.2153 38.6501 18.7103L42.1901 15.1603C42.568 14.7827 42.8255 14.3015 42.9298 13.7775C43.0341 13.2535 42.9806 12.7104 42.7761 12.2168C42.5716 11.7233 42.2253 11.3015 41.781 11.0048C41.3367 10.7082 40.8144 10.55 40.2801 10.5503Z" fill="#800404"/>
<path d="M29 10.5503C28.6453 10.5495 28.2939 10.6189 27.9661 10.7545C27.6383 10.8901 27.3406 11.0892 27.09 11.3403L23.5 14.8803C22.995 15.3897 22.7117 16.078 22.7117 16.7953C22.7117 17.5126 22.995 18.2009 23.5 18.7103C24.0095 19.2153 24.6977 19.4987 25.415 19.4987C26.1324 19.4987 26.8206 19.2153 27.33 18.7103L30.87 15.1603C31.1222 14.9102 31.3224 14.6127 31.4589 14.2849C31.5955 13.9571 31.6658 13.6054 31.6658 13.2503C31.6658 12.8952 31.5955 12.5435 31.4589 12.2157C31.3224 11.8879 31.1222 11.5904 30.87 11.3403C30.375 10.841 29.7031 10.5572 29 10.5503Z" fill="#800404"/>
<path d="M17.64 10.5503C17.2852 10.5495 16.9339 10.6189 16.6061 10.7545C16.2783 10.8901 15.9805 11.0892 15.73 11.3403L12.18 14.8803C11.675 15.3897 11.3916 16.078 11.3916 16.7953C11.3916 17.5126 11.675 18.2009 12.18 18.7103C12.6894 19.2153 13.3777 19.4987 14.095 19.4987C14.8123 19.4987 15.5006 19.2153 16.01 18.7103L19.55 15.1603C19.9279 14.7827 20.1853 14.3015 20.2896 13.7775C20.3939 13.2535 20.3405 12.7104 20.136 12.2168C19.9315 11.7233 19.5852 11.3015 19.1409 11.0048C18.6966 10.7082 18.1742 10.55 17.64 10.5503Z" fill="#800404"/>
<path d="M62.92 22.29C62.5653 22.2893 62.2139 22.3587 61.8861 22.4943C61.5583 22.6299 61.2606 22.8289 61.01 23.08L57.46 26.62C56.955 27.1295 56.6716 27.8177 56.6716 28.535C56.6716 29.2524 56.955 29.9406 57.46 30.45C57.9694 30.9551 58.6577 31.2384 59.375 31.2384C60.0923 31.2384 60.7806 30.9551 61.29 30.45L64.83 26.9C65.2079 26.5224 65.4653 26.0412 65.5697 25.5172C65.674 24.9933 65.6205 24.4501 65.416 23.9566C65.2115 23.463 64.8652 23.0412 64.4209 22.7446C63.9766 22.4479 63.4543 22.2897 62.92 22.29Z" fill="#800404"/>
<path d="M51.6002 22.29C51.2455 22.2893 50.8941 22.3587 50.5663 22.4943C50.2385 22.6299 49.9407 22.8289 49.6902 23.08L46.1402 26.62C45.6352 27.1295 45.3518 27.8177 45.3518 28.535C45.3518 29.2524 45.6352 29.9406 46.1402 30.45C46.6496 30.9551 47.3379 31.2384 48.0552 31.2384C48.7725 31.2384 49.4608 30.9551 49.9702 30.45L53.5102 26.9C53.7623 26.65 53.9625 26.3524 54.0991 26.0246C54.2357 25.6968 54.306 25.3452 54.306 24.99C54.306 24.6349 54.2357 24.2833 54.0991 23.9555C53.9625 23.6276 53.7623 23.3301 53.5102 23.08C53.2596 22.8289 52.9619 22.6299 52.6341 22.4943C52.3063 22.3587 51.9549 22.2893 51.6002 22.29Z" fill="#800404"/>
<path d="M40.2801 22.29C39.9254 22.2893 39.574 22.3587 39.2462 22.4943C38.9184 22.6299 38.6207 22.8289 38.3701 23.08L34.8201 26.62C34.3151 27.1295 34.0317 27.8177 34.0317 28.535C34.0317 29.2524 34.3151 29.9406 34.8201 30.45C35.3295 30.9551 36.0178 31.2384 36.7351 31.2384C37.4524 31.2384 38.1407 30.9551 38.6501 30.45L42.1901 26.9C42.568 26.5224 42.8255 26.0412 42.9298 25.5172C43.0341 24.9933 42.9806 24.4501 42.7761 23.9566C42.5716 23.463 42.2253 23.0412 41.781 22.7446C41.3367 22.4479 40.8144 22.2897 40.2801 22.29Z" fill="#800404"/>
<path d="M29 22.29C28.6453 22.2893 28.2939 22.3587 27.9661 22.4943C27.6383 22.6299 27.3406 22.8289 27.09 23.08L23.5 26.62C22.995 27.1295 22.7117 27.8177 22.7117 28.535C22.7117 29.2524 22.995 29.9406 23.5 30.45C24.0095 30.9551 24.6977 31.2384 25.415 31.2384C26.1324 31.2384 26.8206 30.9551 27.33 30.45L30.87 26.9C31.1222 26.65 31.3224 26.3524 31.4589 26.0246C31.5955 25.6968 31.6658 25.3452 31.6658 24.99C31.6658 24.6349 31.5955 24.2833 31.4589 23.9555C31.3224 23.6276 31.1222 23.3301 30.87 23.08C30.375 22.5808 29.7031 22.2969 29 22.29Z" fill="#800404"/>
<path d="M17.64 22.29C17.2852 22.2893 16.9339 22.3587 16.6061 22.4943C16.2783 22.6299 15.9805 22.8289 15.73 23.08L12.18 26.62C11.675 27.1295 11.3916 27.8177 11.3916 28.535C11.3916 29.2524 11.675 29.9406 12.18 30.45C12.6894 30.9551 13.3777 31.2384 14.095 31.2384C14.8123 31.2384 15.5006 30.9551 16.01 30.45L19.55 26.9C19.9279 26.5224 20.1853 26.0412 20.2896 25.5172C20.3939 24.9933 20.3405 24.4501 20.136 23.9566C19.9315 23.463 19.5852 23.0412 19.1409 22.7446C18.6966 22.4479 18.1742 22.2897 17.64 22.29Z" fill="#800404"/>
<path d="M62.9201 34C62.5654 33.9992 62.214 34.0687 61.8862 34.2042C61.5584 34.3398 61.2606 34.5389 61.0101 34.79L57.4601 38.34C56.9535 38.8479 56.6695 39.5362 56.6704 40.2535C56.6714 40.9709 56.9572 41.6584 57.4651 42.165C57.973 42.6716 58.6613 42.9556 59.3786 42.9547C60.096 42.9538 60.7835 42.6679 61.2901 42.16L64.8301 38.61C65.208 38.2324 65.4654 37.7512 65.5698 37.2272C65.6741 36.7032 65.6206 36.1601 65.4161 35.6665C65.2116 35.173 64.8653 34.7512 64.421 34.4545C63.9767 34.1579 63.4543 33.9997 62.9201 34Z" fill="#800404"/>
<path d="M51.6 34C51.2453 33.9992 50.8939 34.0687 50.5661 34.2042C50.2383 34.3398 49.9406 34.5389 49.69 34.79L46.14 38.34C45.6356 38.8477 45.3525 39.5343 45.3525 40.25C45.3525 40.9657 45.6356 41.6523 46.14 42.16C46.6494 42.665 47.3377 42.9484 48.055 42.9484C48.7724 42.9484 49.4606 42.665 49.97 42.16L53.51 38.61C53.7622 38.3599 53.9623 38.0624 54.0989 37.7346C54.2355 37.4068 54.3058 37.0551 54.3058 36.7C54.3058 36.3449 54.2355 35.9933 54.0989 35.6654C53.9623 35.3376 53.7622 35.0401 53.51 34.79C53.2595 34.5389 52.9617 34.3398 52.6339 34.2042C52.3061 34.0687 51.9548 33.9992 51.6 34Z" fill="#800404"/>
<path d="M40.2802 34C39.9255 33.9992 39.5741 34.0687 39.2463 34.2042C38.9185 34.3398 38.6208 34.5389 38.3702 34.79L34.8202 38.34C34.5694 38.5915 34.3705 38.8899 34.235 39.2182C34.0996 39.5466 34.0301 39.8984 34.0305 40.2535C34.0315 40.9709 34.3173 41.6584 34.8252 42.165C35.3331 42.6716 36.0214 42.9556 36.7387 42.9547C37.4561 42.9538 38.1436 42.6679 38.6502 42.16L42.1902 38.61C42.5681 38.2324 42.8255 37.7512 42.9299 37.2272C43.0342 36.7032 42.9807 36.1601 42.7762 35.6665C42.5717 35.173 42.2254 34.7512 41.7811 34.4545C41.3368 34.1579 40.8144 33.9997 40.2802 34Z" fill="#800404"/>
<path d="M29.0001 34C28.6454 33.9992 28.294 34.0687 27.9662 34.2042C27.6384 34.3398 27.3407 34.5389 27.0901 34.79L23.5001 38.37C22.9957 38.8777 22.7126 39.5643 22.7126 40.28C22.7126 40.9957 22.9957 41.6823 23.5001 42.19C24.0096 42.695 24.6978 42.9784 25.4151 42.9784C26.1325 42.9784 26.8207 42.695 27.3301 42.19L30.8701 38.64C31.1223 38.3899 31.3225 38.0924 31.459 37.7646C31.5956 37.4368 31.6659 37.0851 31.6659 36.73C31.6659 36.3749 31.5956 36.0232 31.459 35.6954C31.3225 35.3676 31.1223 35.0701 30.8701 34.82C30.3801 34.3097 29.7075 34.0148 29.0001 34Z" fill="#800404"/>
<path d="M17.6402 34.0001C17.2855 33.9993 16.9341 34.0687 16.6063 34.2043C16.2785 34.3399 15.9807 34.539 15.7302 34.7901L12.1802 38.3401C11.9274 38.5909 11.7265 38.8891 11.5889 39.2175C11.4514 39.546 11.3798 39.8984 11.3784 40.2545C11.3756 40.9737 11.6586 41.6645 12.1652 42.1751C12.6718 42.6856 13.3604 42.974 14.0796 42.9768C14.7988 42.9797 15.4897 42.6967 16.0002 42.1901L19.5402 38.6401C19.928 38.2648 20.1944 37.7819 20.305 37.2537C20.4157 36.7255 20.3655 36.1763 20.161 35.6769C19.9566 35.1774 19.6071 34.7508 19.1578 34.4519C18.7084 34.153 18.1798 33.9956 17.6402 34.0001Z" fill="#800404"/>
<path d="M62.9201 45.77C62.5654 45.7693 62.214 45.8387 61.8862 45.9743C61.5584 46.1098 61.2606 46.3089 61.0101 46.56L57.4601 50.11C56.9535 50.6179 56.6695 51.3062 56.6704 52.0236C56.6714 52.7409 56.9572 53.4285 57.4651 53.935C57.973 54.4416 58.6613 54.7256 59.3786 54.7247C60.096 54.7238 60.7835 54.4379 61.2901 53.93L64.8301 50.39C65.2066 50.0111 65.4627 49.5293 65.5662 49.0053C65.6698 48.4812 65.6161 47.9383 65.412 47.4446C65.208 46.951 64.8625 46.5286 64.4192 46.2307C63.9758 45.9328 63.4543 45.7725 62.9201 45.77Z" fill="#800404"/>
<path d="M51.6 45.77C51.2453 45.7693 50.8939 45.8387 50.5661 45.9743C50.2383 46.1098 49.9406 46.3089 49.69 46.56L46.14 50.11C45.6356 50.6177 45.3525 51.3044 45.3525 52.02C45.3525 52.7357 45.6356 53.4223 46.14 53.93C46.6494 54.435 47.3377 54.7184 48.055 54.7184C48.7724 54.7184 49.4606 54.435 49.97 53.93L53.51 50.39C53.7625 50.1391 53.9629 49.8407 54.0996 49.5121C54.2363 49.1834 54.3067 48.831 54.3067 48.475C54.3067 48.1191 54.2363 47.7666 54.0996 47.438C53.9629 47.1093 53.7625 46.811 53.51 46.56C53.2595 46.3089 52.9617 46.1098 52.6339 45.9743C52.3061 45.8387 51.9548 45.7693 51.6 45.77Z" fill="#800404"/>
<path d="M40.2802 45.7701C39.9255 45.7693 39.5741 45.8387 39.2463 45.9743C38.9185 46.1099 38.6208 46.3089 38.3702 46.5601L34.8202 50.1101C34.3136 50.6179 34.0296 51.3063 34.0305 52.0236C34.0315 52.7409 34.3173 53.4285 34.8252 53.9351C35.3331 54.4416 36.0214 54.7257 36.7387 54.7247C37.4561 54.7238 38.1436 54.4379 38.6502 53.9301L42.1902 50.3901C42.4427 50.1391 42.643 49.8408 42.7797 49.5121C42.9165 49.1835 42.9868 48.831 42.9868 48.4751C42.9868 48.1191 42.9165 47.7667 42.7797 47.438C42.643 47.1094 42.4427 46.811 42.1902 46.5601C41.9403 46.308 41.6427 46.1084 41.3147 45.9727C40.9868 45.8371 40.6351 45.7682 40.2802 45.7701Z" fill="#800404"/>
<path d="M29.0001 45.77C28.6454 45.7693 28.294 45.8387 27.9662 45.9743C27.6384 46.1098 27.3407 46.3089 27.0901 46.56L23.5001 50.11C22.9957 50.6177 22.7126 51.3044 22.7126 52.02C22.7126 52.7357 22.9957 53.4223 23.5001 53.93C24.0096 54.435 24.6978 54.7184 25.4151 54.7184C26.1325 54.7184 26.8207 54.435 27.3301 53.93L30.8701 50.39C31.1226 50.1391 31.323 49.8407 31.4597 49.5121C31.5964 49.1834 31.6668 48.831 31.6668 48.475C31.6668 48.1191 31.5964 47.7666 31.4597 47.438C31.323 47.1093 31.1226 46.811 30.8701 46.56C30.3751 46.0608 29.7032 45.7769 29.0001 45.77Z" fill="#800404"/>
<path d="M17.6401 45.7701C17.2853 45.7693 16.934 45.8387 16.6062 45.9743C16.2784 46.1099 15.9806 46.3089 15.7301 46.5601L12.1801 50.1101C11.6735 50.6166 11.3889 51.3037 11.3889 52.0201C11.3889 52.7364 11.6735 53.4235 12.1801 53.9301C12.6866 54.4366 13.3737 54.7212 14.0901 54.7212C14.8065 54.7212 15.4935 54.4366 16.0001 53.9301L19.5401 50.3901C19.7925 50.1391 19.9929 49.8408 20.1296 49.5121C20.2663 49.1835 20.3367 48.831 20.3367 48.4751C20.3367 48.1191 20.2663 47.7667 20.1296 47.438C19.9929 47.1094 19.7925 46.811 19.5401 46.5601C19.2902 46.308 18.9926 46.1084 18.6646 45.9727C18.3367 45.8371 17.985 45.7682 17.6301 45.7701H17.6401Z" fill="#800404"/>
<path d="M62.9201 57.5103C62.5637 57.5082 62.2104 57.577 61.8808 57.7126C61.5512 57.8482 61.2518 58.048 61.0001 58.3003L57.4501 61.8503C56.9435 62.3582 56.6595 63.0465 56.6604 63.7638C56.6613 64.4812 56.9472 65.1687 57.4551 65.6753C57.963 66.1819 58.6513 66.4659 59.3686 66.465C60.0859 66.464 60.7735 66.1782 61.2801 65.6703L64.8201 62.1303C65.1966 61.7514 65.4527 61.2696 65.5562 60.7456C65.6598 60.2215 65.6061 59.6786 65.402 59.1849C65.1979 58.6912 64.8525 58.2689 64.4092 57.971C63.9658 57.673 63.4443 57.5128 62.9101 57.5103H62.9201Z" fill="#800404"/>
<path d="M51.6 57.5103C51.2453 57.5095 50.8939 57.5789 50.5661 57.7145C50.2383 57.8501 49.9406 58.0491 49.69 58.3003L46.14 61.8503C45.6356 62.358 45.3525 63.0446 45.3525 63.7603C45.3525 64.4759 45.6356 65.1626 46.14 65.6703C46.6494 66.1753 47.3377 66.4586 48.055 66.4586C48.7724 66.4586 49.4606 66.1753 49.97 65.6703L53.51 62.1303C53.7625 61.8793 53.9629 61.581 54.0996 61.2523C54.2363 60.9237 54.3067 60.5712 54.3067 60.2153C54.3067 59.8593 54.2363 59.5069 54.0996 59.1782C53.9629 58.8496 53.7625 58.5512 53.51 58.3003C53.2595 58.0491 52.9617 57.8501 52.6339 57.7145C52.3061 57.5789 51.9548 57.5095 51.6 57.5103Z" fill="#800404"/>
<path d="M40.2802 57.5103C39.9255 57.5095 39.5741 57.5789 39.2463 57.7145C38.9185 57.8501 38.6208 58.0492 38.3702 58.3003L34.8202 61.8503C34.3136 62.3582 34.0296 63.0465 34.0305 63.7638C34.0315 64.4812 34.3173 65.1687 34.8252 65.6753C35.3331 66.1819 36.0214 66.4659 36.7387 66.465C37.4561 66.464 38.1436 66.1782 38.6502 65.6703L42.1902 62.1303C42.4427 61.8794 42.643 61.581 42.7797 61.2523C42.9165 60.9237 42.9868 60.5712 42.9868 60.2153C42.9868 59.8593 42.9165 59.5069 42.7797 59.1782C42.643 58.8496 42.4427 58.5512 42.1902 58.3003C41.9403 58.0483 41.6427 57.8486 41.3147 57.713C40.9868 57.5773 40.6351 57.5084 40.2802 57.5103Z" fill="#800404"/>
<path d="M29.0001 57.5103C28.6454 57.5095 28.294 57.5789 27.9662 57.7145C27.6384 57.8501 27.3407 58.0491 27.0901 58.3003L23.5001 61.8503C22.9957 62.358 22.7126 63.0446 22.7126 63.7603C22.7126 64.4759 22.9957 65.1626 23.5001 65.6703C24.0096 66.1753 24.6978 66.4586 25.4151 66.4586C26.1325 66.4586 26.8207 66.1753 27.3301 65.6703L30.8701 62.1303C31.1226 61.8793 31.323 61.581 31.4597 61.2523C31.5964 60.9237 31.6668 60.5712 31.6668 60.2153C31.6668 59.8593 31.5964 59.5069 31.4597 59.1782C31.323 58.8496 31.1226 58.5512 30.8701 58.3003C30.3751 57.801 29.7032 57.5171 29.0001 57.5103Z" fill="#800404"/>
<path d="M17.6401 57.5103C17.2853 57.5095 16.934 57.5789 16.6062 57.7145C16.2784 57.8501 15.9806 58.0492 15.7301 58.3003L12.1801 61.8503C11.6735 62.3569 11.3889 63.0439 11.3889 63.7603C11.3889 64.4767 11.6735 65.1637 12.1801 65.6703C12.6866 66.1769 13.3737 66.4614 14.0901 66.4614C14.8065 66.4614 15.4935 66.1769 16.0001 65.6703L19.5401 62.1303C19.7925 61.8794 19.9929 61.581 20.1296 61.2523C20.2663 60.9237 20.3367 60.5712 20.3367 60.2153C20.3367 59.8593 20.2663 59.5069 20.1296 59.1782C19.9929 58.8496 19.7925 58.5512 19.5401 58.3003C19.2902 58.0483 18.9926 57.8486 18.6646 57.713C18.3367 57.5773 17.985 57.5084 17.6301 57.5103H17.6401Z" fill="#800404"/>
</g>
<defs>
<clipPath id="clip0">
<rect width="90" height="90" fill="white"/>
</clipPath>
</defs>
</svg>
