<svg width="90" height="90" viewBox="0 0 90 90" fill="none" xmlns="http://www.w3.org/2000/svg">
<g clip-path="url(#clip0)">
<path d="M72.71 27.74C71.1557 25.9403 69.3264 24.3979 67.29 23.17L67.17 23C66.602 22.7109 65.9662 22.5815 65.3304 22.6256C64.6946 22.6696 64.0827 22.8854 63.56 23.25C62.36 23.97 60.79 25.05 62.12 42.38V42.5C62.1858 43.1015 62.1858 43.7084 62.12 44.31V44.43C61.7045 46.0494 60.8173 47.5089 59.571 48.6234C58.3248 49.7379 56.7756 50.4572 55.12 50.69C53.5319 51.0119 51.8832 50.8383 50.3969 50.1926C48.9107 49.547 47.6586 48.4604 46.81 47.08C46.0544 45.7742 45.6171 44.3087 45.5337 42.8023C45.4503 41.296 45.7231 39.7912 46.33 38.41C46.57 37.81 46.93 37.21 47.17 36.73C47.7335 35.3831 48.4197 34.091 49.22 32.87C55 23.41 54.05 12 46.71 1.49997C46.4018 1.06921 46.0068 0.707831 45.5503 0.439135C45.0939 0.170439 44.5862 0.000396624 44.06 -0.0600258C43.5317 -0.104385 43 -0.0324722 42.5025 0.150657C42.0049 0.333787 41.5535 0.623687 41.18 0.999974C38.29 3.99997 35.52 7.25997 32.87 10.27C29.62 14 26.25 17.75 22.76 21.36C17.23 27 10 35.68 8.00002 46.63C6.70932 54.0179 7.71811 61.6239 10.89 68.42C13.9042 74.5744 18.4947 79.8207 24.1945 83.6253C29.8944 87.4299 36.5002 89.6569 43.34 90.08H45C51.5374 90.0449 57.9528 88.3065 63.6134 85.036C69.274 81.7655 73.9844 77.076 77.28 71.43C85.83 56.74 83.9 39.17 72.71 27.74ZM71.14 67.94C68.3716 72.6842 64.3695 76.5898 59.5591 79.2415C54.7486 81.8933 49.3096 83.1921 43.82 83C38.2586 82.6253 32.8943 80.7907 28.2681 77.6814C23.6419 74.5721 19.9174 70.298 17.47 65.29C14.9386 59.8455 14.099 53.7668 15.06 47.84C16.38 41 20.35 34.12 27.7 26.41C31.31 22.8 34.7 18.83 38.05 15.1C39.61 13.3 41.3 11.37 42.98 9.56997C45.39 14.38 47.43 21.72 42.98 29.06C42.0873 30.5379 41.2826 32.0672 40.57 33.64C40.3384 34.2229 40.0574 34.7849 39.73 35.32C39.73 35.3518 39.7174 35.3823 39.6949 35.4048C39.6724 35.4273 39.6418 35.44 39.61 35.44C38.5236 37.8716 38.0331 40.5274 38.1792 43.1867C38.3253 45.8459 39.1038 48.432 40.45 50.73C42.036 53.3851 44.3986 55.4896 47.2188 56.7593C50.0389 58.029 53.1807 58.4027 56.22 57.83C59.2999 57.3902 62.1727 56.0225 64.4559 53.9091C66.739 51.7956 68.3241 49.0368 69 46C69.3298 44.6221 69.4111 43.1964 69.24 41.79C69 39.14 69 36.49 68.88 34.21C76.56 43.26 77.52 56.62 71.14 67.94Z" fill="#800404"/>
</g>
<defs>
<clipPath id="clip0">
<rect width="90" height="90" fill="white"/>
</clipPath>
</defs>
</svg>
