<svg width="16" height="133" viewBox="0 0 16 133" fill="none" xmlns="http://www.w3.org/2000/svg">
<path d="M0.639999 128.44L0.639999 126.744L12 122.328L12 124.216L8.912 125.416L8.912 129.8L12 130.984L12 132.888L0.639999 128.44ZM7.584 125.768L2.608 127.592L7.584 129.48L7.584 125.768ZM12.16 117.605C12.16 118.469 11.9627 119.226 11.568 119.877C11.1627 120.528 10.6293 121.034 9.968 121.397C9.30667 121.76 8.58667 121.941 7.808 121.941C7.02933 121.941 6.31467 121.765 5.664 121.413C5.00267 121.05 4.47467 120.549 4.08 119.909C3.68533 119.258 3.488 118.49 3.488 117.605C3.488 116.741 3.68 116 4.064 115.381C4.43733 114.752 4.93867 114.282 5.568 113.973L6.112 115.685C5.76 115.877 5.488 116.149 5.296 116.501C5.09333 116.842 4.992 117.221 4.992 117.637C4.992 118.106 5.11467 118.533 5.36 118.917C5.59467 119.29 5.92533 119.589 6.352 119.813C6.77867 120.026 7.264 120.133 7.808 120.133C8.352 120.133 8.83733 120.021 9.264 119.797C9.69067 119.562 10.032 119.258 10.288 118.885C10.5333 118.501 10.656 118.08 10.656 117.621C10.656 117.194 10.544 116.789 10.32 116.405C10.096 116.021 9.824 115.765 9.504 115.637L10.016 113.909C10.6453 114.186 11.1627 114.65 11.568 115.301C11.9627 115.952 12.16 116.72 12.16 117.605ZM12.16 108.746C12.16 109.61 11.9627 110.367 11.568 111.018C11.1733 111.668 10.6507 112.175 10 112.538C9.33867 112.9 8.61867 113.082 7.84 113.082C7.05067 113.082 6.32533 112.9 5.664 112.538C5.00267 112.175 4.47467 111.668 4.08 111.018C3.68533 110.367 3.488 109.604 3.488 108.73C3.488 107.855 3.69067 107.098 4.096 106.458C4.49067 105.818 5.01333 105.327 5.664 104.986C6.31467 104.634 7.01333 104.458 7.76 104.458C8.02667 104.458 8.24 104.474 8.4 104.506L8.4 111.21C8.89067 111.178 9.32267 111.044 9.696 110.81C10.0587 110.564 10.3467 110.26 10.56 109.898C10.7627 109.524 10.864 109.119 10.864 108.682C10.864 108.212 10.7467 107.77 10.512 107.354C10.2773 106.938 9.968 106.65 9.584 106.49L10.016 104.986C10.6453 105.274 11.1627 105.754 11.568 106.426C11.9627 107.087 12.16 107.86 12.16 108.746ZM7.232 111.258L7.232 106.202C6.752 106.244 6.33067 106.383 5.968 106.618C5.59467 106.852 5.30667 107.156 5.104 107.53C4.89067 107.892 4.784 108.298 4.784 108.746C4.784 109.183 4.89067 109.588 5.104 109.962C5.30667 110.324 5.59467 110.623 5.968 110.858C6.33067 111.092 6.752 111.226 7.232 111.258ZM12.16 100.046C12.16 100.75 12.0427 101.417 11.808 102.046C11.5733 102.675 11.232 103.214 10.784 103.662L9.6 103.006C10.0267 102.526 10.336 102.046 10.528 101.566C10.72 101.086 10.816 100.601 10.816 100.11C10.816 99.6195 10.7253 99.2195 10.544 98.9101C10.352 98.6008 10.0747 98.4461 9.712 98.4461C9.456 98.4461 9.25867 98.5261 9.12 98.6861C8.98133 98.8461 8.86933 99.0808 8.784 99.3901C8.69867 99.6888 8.592 100.051 8.464 100.478C8.28267 101.075 8.096 101.577 7.904 101.982C7.70133 102.387 7.456 102.691 7.168 102.894C6.88 103.097 6.512 103.198 6.064 103.198C5.25333 103.198 4.624 102.894 4.176 102.286C3.71733 101.678 3.488 100.883 3.488 99.9021C3.488 99.2941 3.584 98.7341 3.776 98.2221C3.95733 97.6995 4.24533 97.2408 4.64 96.8461L5.808 97.5981C5.14666 98.3235 4.816 99.1235 4.816 99.9981C4.816 100.382 4.89066 100.739 5.04 101.07C5.18933 101.39 5.46666 101.55 5.872 101.55C6.21333 101.55 6.45867 101.406 6.608 101.118C6.75733 100.83 6.91733 100.403 7.088 99.8381C7.28 99.1981 7.472 98.6488 7.664 98.1901C7.84533 97.7208 8.08533 97.3635 8.384 97.1181C8.672 96.8621 9.072 96.7341 9.584 96.7341C10.3947 96.7341 11.0293 97.0381 11.488 97.6461C11.936 98.2541 12.16 99.0541 12.16 100.046ZM12.16 92.1867C12.16 92.8907 12.0427 93.5574 11.808 94.1867C11.5733 94.8161 11.232 95.3547 10.784 95.8027L9.6 95.1467C10.0267 94.6667 10.336 94.1867 10.528 93.7067C10.72 93.2267 10.816 92.7414 10.816 92.2507C10.816 91.7601 10.7253 91.3601 10.544 91.0507C10.352 90.7414 10.0747 90.5867 9.712 90.5867C9.456 90.5867 9.25866 90.6667 9.12 90.8267C8.98133 90.9867 8.86933 91.2214 8.784 91.5307C8.69866 91.8294 8.592 92.1921 8.464 92.6187C8.28266 93.2161 8.096 93.7174 7.904 94.1227C7.70133 94.5281 7.456 94.8321 7.168 95.0347C6.88 95.2374 6.512 95.3387 6.064 95.3387C5.25333 95.3387 4.624 95.0347 4.176 94.4267C3.71733 93.8187 3.488 93.0241 3.488 92.0427C3.488 91.4347 3.584 90.8747 3.776 90.3627C3.95733 89.8401 4.24533 89.3814 4.64 88.9867L5.808 89.7387C5.14666 90.4641 4.816 91.2641 4.816 92.1387C4.816 92.5227 4.89066 92.8801 5.04 93.2107C5.18933 93.5307 5.46666 93.6907 5.872 93.6907C6.21333 93.6907 6.45866 93.5467 6.608 93.2587C6.75733 92.9707 6.91733 92.5441 7.088 91.9787C7.28 91.3387 7.472 90.7894 7.664 90.3307C7.84533 89.8614 8.08533 89.5041 8.384 89.2587C8.672 89.0027 9.072 88.8747 9.584 88.8747C10.3947 88.8747 11.0293 89.1787 11.488 89.7867C11.936 90.3947 12.16 91.1947 12.16 92.1867ZM12.16 83.5114C12.16 84.3754 11.9627 85.1327 11.568 85.7834C11.1733 86.434 10.6507 86.9407 10 87.3034C9.33866 87.666 8.61866 87.8474 7.84 87.8474C7.05066 87.8474 6.32533 87.666 5.664 87.3034C5.00266 86.9407 4.47466 86.434 4.08 85.7834C3.68533 85.1327 3.488 84.37 3.488 83.4954C3.488 82.6207 3.69066 81.8634 4.096 81.2234C4.49066 80.5834 5.01333 80.0927 5.664 79.7514C6.31466 79.3994 7.01333 79.2234 7.76 79.2234C8.02666 79.2234 8.24 79.2394 8.4 79.2714L8.4 85.9754C8.89066 85.9434 9.32266 85.81 9.696 85.5754C10.0587 85.33 10.3467 85.026 10.56 84.6634C10.7627 84.29 10.864 83.8847 10.864 83.4474C10.864 82.978 10.7467 82.5354 10.512 82.1194C10.2773 81.7034 9.968 81.4154 9.584 81.2554L10.016 79.7514C10.6453 80.0394 11.1627 80.5194 11.568 81.1914C11.9627 81.8527 12.16 82.626 12.16 83.5114ZM7.232 86.0234L7.232 80.9674C6.752 81.01 6.33066 81.1487 5.968 81.3834C5.59466 81.618 5.30666 81.922 5.104 82.2954C4.89066 82.658 4.784 83.0634 4.784 83.5114C4.784 83.9487 4.89066 84.354 5.104 84.7274C5.30666 85.09 5.59466 85.3887 5.968 85.6234C6.33066 85.858 6.752 85.9914 7.232 86.0234ZM12 66.3306L12 68.0906L7.312 68.0906C6.52266 68.0906 5.952 68.2186 5.6 68.4746C5.23733 68.72 5.056 69.088 5.056 69.5786C5.056 69.92 5.14133 70.2613 5.312 70.6026C5.48266 70.9333 5.71733 71.232 6.016 71.4986C6.31466 71.7653 6.65066 71.9573 7.024 72.0746L12 72.0746L12 73.8346L3.632 73.8346L3.632 72.2346L5.312 72.2346C4.75733 71.9146 4.31466 71.4506 3.984 70.8426C3.65333 70.2346 3.488 69.5626 3.488 68.8266C3.488 68.1653 3.648 67.6533 3.968 67.2906C4.27733 66.928 4.688 66.6773 5.2 66.5386C5.712 66.4 6.27733 66.3306 6.896 66.3306L12 66.3306ZM12.16 60.5277C12.16 61.4024 11.9627 62.1651 11.568 62.8157C11.1627 63.4557 10.6347 63.9517 9.984 64.3037C9.32266 64.6557 8.60266 64.8317 7.824 64.8317C7.04533 64.8317 6.33066 64.6557 5.68 64.3037C5.01866 63.9411 4.49066 63.4397 4.096 62.7997C3.69066 62.1491 3.488 61.3917 3.488 60.5277C3.488 59.6637 3.69066 58.9117 4.096 58.2717C4.49066 57.6211 5.01866 57.1197 5.68 56.7677C6.33066 56.4051 7.04533 56.2237 7.824 56.2237C8.60266 56.2237 9.32266 56.3997 9.984 56.7517C10.6347 57.1037 11.1627 57.6051 11.568 58.2557C11.9627 58.8957 12.16 59.6531 12.16 60.5277ZM7.84 63.0237C8.37333 63.0237 8.85333 62.9117 9.28 62.6877C9.70666 62.4637 10.0427 62.1651 10.288 61.7917C10.5333 61.4184 10.656 60.9971 10.656 60.5277C10.656 60.0691 10.5333 59.6531 10.288 59.2797C10.032 58.8957 9.69066 58.5917 9.264 58.3677C8.83733 58.1437 8.35733 58.0317 7.824 58.0317C7.29066 58.0317 6.81066 58.1437 6.384 58.3677C5.95733 58.5917 5.62133 58.8957 5.376 59.2797C5.12 59.6531 4.992 60.0691 4.992 60.5277C4.992 60.9864 5.12 61.4077 5.376 61.7917C5.62133 62.1651 5.96266 62.4637 6.4 62.6877C6.82666 62.9117 7.30666 63.0237 7.84 63.0237ZM12.16 51.6867C12.16 52.3907 12.0427 53.0574 11.808 53.6867C11.5733 54.3161 11.232 54.8547 10.784 55.3027L9.6 54.6467C10.0267 54.1667 10.336 53.6867 10.528 53.2067C10.72 52.7267 10.816 52.2414 10.816 51.7507C10.816 51.2601 10.7253 50.8601 10.544 50.5507C10.352 50.2414 10.0747 50.0867 9.712 50.0867C9.456 50.0867 9.25866 50.1667 9.12 50.3267C8.98133 50.4867 8.86933 50.7214 8.784 51.0307C8.69866 51.3294 8.592 51.6921 8.464 52.1187C8.28266 52.7161 8.096 53.2174 7.904 53.6227C7.70133 54.0281 7.456 54.3321 7.168 54.5347C6.88 54.7374 6.512 54.8387 6.064 54.8387C5.25333 54.8387 4.624 54.5347 4.176 53.9267C3.71733 53.3187 3.488 52.5241 3.488 51.5427C3.488 50.9347 3.584 50.3747 3.776 49.8627C3.95733 49.3401 4.24533 48.8814 4.64 48.4867L5.808 49.2387C5.14666 49.9641 4.816 50.7641 4.816 51.6387C4.816 52.0227 4.89066 52.3801 5.04 52.7107C5.18933 53.0307 5.46666 53.1907 5.872 53.1907C6.21333 53.1907 6.45866 53.0467 6.608 52.7587C6.75733 52.4707 6.91733 52.0441 7.088 51.4787C7.28 50.8387 7.472 50.2894 7.664 49.8307C7.84533 49.3614 8.08533 49.0041 8.384 48.7587C8.672 48.5027 9.072 48.3747 9.584 48.3747C10.3947 48.3747 11.0293 48.6787 11.488 49.2867C11.936 49.8947 12.16 50.6947 12.16 51.6867ZM12.16 43.8274C12.16 44.5314 12.0427 45.198 11.808 45.8274C11.5733 46.4567 11.232 46.9954 10.784 47.4434L9.6 46.7874C10.0267 46.3074 10.336 45.8274 10.528 45.3474C10.72 44.8674 10.816 44.382 10.816 43.8914C10.816 43.4007 10.7253 43.0007 10.544 42.6914C10.352 42.382 10.0747 42.2274 9.712 42.2274C9.456 42.2274 9.25866 42.3074 9.12 42.4674C8.98133 42.6274 8.86933 42.862 8.784 43.1714C8.69866 43.47 8.592 43.8327 8.464 44.2594C8.28266 44.8567 8.096 45.358 7.904 45.7634C7.70133 46.1687 7.456 46.4727 7.168 46.6754C6.88 46.878 6.512 46.9794 6.064 46.9794C5.25333 46.9794 4.624 46.6754 4.176 46.0674C3.71733 45.4594 3.488 44.6647 3.488 43.6834C3.488 43.0754 3.584 42.5154 3.776 42.0034C3.95733 41.4807 4.24533 41.022 4.64 40.6274L5.808 41.3794C5.14666 42.1047 4.816 42.9047 4.816 43.7794C4.816 44.1634 4.89066 44.5207 5.04 44.8514C5.18933 45.1714 5.46666 45.3314 5.872 45.3314C6.21333 45.3314 6.45866 45.1874 6.608 44.8994C6.75733 44.6114 6.91733 44.1847 7.088 43.6194C7.28 42.9794 7.472 42.43 7.664 41.9714C7.84533 41.502 8.08533 41.1447 8.384 40.8994C8.672 40.6434 9.072 40.5154 9.584 40.5154C10.3947 40.5154 11.0293 40.8194 11.488 41.4274C11.936 42.0354 12.16 42.8354 12.16 43.8274ZM9.552 39.552C9.01866 39.552 8.55466 39.4027 8.16 39.104C7.75466 38.8053 7.44533 38.3893 7.232 37.856C7.008 37.312 6.896 36.688 6.896 35.984C6.896 35.6107 6.928 35.232 6.992 34.848C7.04533 34.4533 7.12533 34.1067 7.232 33.808L6.704 33.808C6.11733 33.808 5.65866 33.984 5.328 34.336C4.99733 34.688 4.832 35.1947 4.832 35.856C4.832 36.3147 4.912 36.7573 5.072 37.184C5.232 37.6107 5.46666 38.0533 5.776 38.512L4.592 39.104C4.22933 38.5493 3.95733 37.9947 3.776 37.44C3.584 36.8747 3.488 36.2827 3.488 35.664C3.488 34.544 3.78666 33.664 4.384 33.024C4.97066 32.3733 5.808 32.048 6.896 32.048L10.016 32.048C10.2187 32.048 10.3627 32.016 10.448 31.952C10.5333 31.8773 10.5813 31.7547 10.592 31.584L12 31.584C12.032 31.744 12.0533 31.888 12.064 32.016C12.0747 32.144 12.08 32.2507 12.08 32.336C12.08 32.72 11.9893 33.008 11.808 33.2C11.616 33.3813 11.4027 33.488 11.168 33.52L10.688 33.568C11.1573 33.9307 11.52 34.3947 11.776 34.96C12.032 35.5253 12.16 36.096 12.16 36.672C12.16 37.2267 12.048 37.7227 11.824 38.16C11.5893 38.5973 11.2747 38.9387 10.88 39.184C10.4853 39.4293 10.0427 39.552 9.552 39.552ZM10.064 34.224C9.78666 33.9467 9.52533 33.808 9.28 33.808L8.32 33.808C8.08533 34.4373 7.968 35.0773 7.968 35.728C7.968 36.368 8.10133 36.8907 8.368 37.296C8.624 37.6907 8.97066 37.888 9.408 37.888C9.77066 37.888 10.1067 37.744 10.416 37.456C10.7147 37.1573 10.864 36.7307 10.864 36.176C10.864 35.8027 10.7893 35.44 10.64 35.088C10.4907 34.736 10.2987 34.448 10.064 34.224ZM0.319995 25.9436L0.319995 24.1836L9.584 24.1836C10.0107 24.1836 10.2827 24.1196 10.4 23.9916C10.5173 23.8636 10.576 23.7036 10.576 23.5116C10.576 23.2983 10.5547 23.0956 10.512 22.9036C10.4693 22.7116 10.416 22.5516 10.352 22.4236L11.744 22.1676C11.8507 22.4236 11.9413 22.7276 12.016 23.0796C12.0907 23.4316 12.128 23.7463 12.128 24.0236C12.128 24.621 11.9627 25.0903 11.632 25.4316C11.2907 25.773 10.8213 25.9436 10.224 25.9436L0.319995 25.9436ZM12.16 17.3871C12.16 18.2618 11.9627 19.0245 11.568 19.6751C11.1627 20.3151 10.6347 20.8111 9.984 21.1631C9.32266 21.5151 8.60266 21.6911 7.824 21.6911C7.04533 21.6911 6.33066 21.5151 5.67999 21.1631C5.01866 20.8005 4.49066 20.2991 4.09599 19.6591C3.69066 19.0085 3.48799 18.2511 3.48799 17.3871C3.48799 16.5231 3.69066 15.7711 4.09599 15.1311C4.49066 14.4805 5.01866 13.9791 5.67999 13.6271C6.33066 13.2645 7.04533 13.0831 7.82399 13.0831C8.60266 13.0831 9.32266 13.2591 9.98399 13.6111C10.6347 13.9631 11.1627 14.4645 11.568 15.1151C11.9627 15.7551 12.16 16.5125 12.16 17.3871ZM7.83999 19.8831C8.37333 19.8831 8.85333 19.7711 9.28 19.5471C9.70666 19.3231 10.0427 19.0245 10.288 18.6511C10.5333 18.2778 10.656 17.8565 10.656 17.3871C10.656 16.9285 10.5333 16.5125 10.288 16.1391C10.032 15.7551 9.69066 15.4511 9.26399 15.2271C8.83733 15.0031 8.35733 14.8911 7.82399 14.8911C7.29066 14.8911 6.81066 15.0031 6.38399 15.2271C5.95733 15.4511 5.62133 15.7551 5.37599 16.1391C5.11999 16.5125 4.99199 16.9285 4.99199 17.3871C4.99199 17.8458 5.11999 18.2671 5.37599 18.6511C5.62133 19.0245 5.96266 19.3231 6.39999 19.5471C6.82666 19.7711 7.30666 19.8831 7.83999 19.8831ZM2.25599 11.4261L0.319994 11.4261L0.319994 9.66612L2.25599 9.66612L2.25599 11.4261ZM15.056 12.4021C15.056 12.7861 14.9973 13.1488 14.88 13.4901C14.7627 13.8421 14.5813 14.1515 14.336 14.4181L13.152 13.6341C13.28 13.4955 13.3707 13.3355 13.424 13.1541C13.488 12.9728 13.52 12.7915 13.52 12.6101C13.52 12.3008 13.4027 12.0288 13.168 11.7941C12.944 11.5488 12.656 11.4261 12.304 11.4261L3.63199 11.4261L3.63199 9.66612L12.176 9.66612C12.7413 9.66612 13.2373 9.79412 13.664 10.0501C14.1013 10.2955 14.4427 10.6261 14.688 11.0421C14.9333 11.4581 15.056 11.9115 15.056 12.4021ZM9.55199 8.16137C9.01866 8.16137 8.55466 8.01204 8.15999 7.71337C7.75466 7.41471 7.44533 6.99871 7.23199 6.46537C7.00799 5.92137 6.89599 5.29737 6.89599 4.59337C6.89599 4.22004 6.92799 3.84137 6.99199 3.45737C7.04533 3.06271 7.12533 2.71604 7.23199 2.41737L6.70399 2.41737C6.11733 2.41737 5.65866 2.59337 5.32799 2.94537C4.99733 3.29737 4.83199 3.80404 4.83199 4.46537C4.83199 4.92404 4.91199 5.36671 5.07199 5.79337C5.23199 6.22004 5.46666 6.66271 5.77599 7.12137L4.59199 7.71337C4.22933 7.15871 3.95733 6.60404 3.77599 6.04937C3.58399 5.48404 3.48799 4.89204 3.48799 4.27337C3.48799 3.15337 3.78666 2.27337 4.38399 1.63337C4.97066 0.982708 5.80799 0.657374 6.89599 0.657374L10.016 0.657374C10.2187 0.657374 10.3627 0.625374 10.448 0.561374C10.5333 0.486707 10.5813 0.36404 10.592 0.193374L12 0.193374C12.032 0.353374 12.0533 0.497374 12.064 0.625374C12.0747 0.753374 12.08 0.860041 12.08 0.945374C12.08 1.32937 11.9893 1.61737 11.808 1.80937C11.616 1.99071 11.4027 2.09737 11.168 2.12937L10.688 2.17737C11.1573 2.54004 11.52 3.00404 11.776 3.56937C12.032 4.13471 12.16 4.70537 12.16 5.28137C12.16 5.83604 12.048 6.33204 11.824 6.76937C11.5893 7.20671 11.2747 7.54804 10.88 7.79337C10.4853 8.03871 10.0427 8.16137 9.55199 8.16137ZM10.064 2.83337C9.78666 2.55604 9.52533 2.41737 9.27999 2.41737L8.31999 2.41737C8.08533 3.04671 7.96799 3.68671 7.96799 4.33737C7.96799 4.97737 8.10133 5.50004 8.36799 5.90537C8.62399 6.30004 8.97066 6.49737 9.40799 6.49737C9.77066 6.49737 10.1067 6.35337 10.416 6.06537C10.7147 5.76671 10.864 5.34004 10.864 4.78537C10.864 4.41204 10.7893 4.04937 10.64 3.69737C10.4907 3.34537 10.2987 3.05737 10.064 2.83337Z" fill="#E0833E"/>
</svg>
