<svg width="40" height="40" viewBox="0 0 40 40" fill="none" xmlns="http://www.w3.org/2000/svg">
<circle cx="20" cy="20" r="20" fill="#E0833E"/>
<path fill-rule="evenodd" clip-rule="evenodd" d="M17.5213 10.5389C17.8659 10.7112 18.0056 11.1303 17.8333 11.4749L15.0426 17.0563C14.8703 17.4009 14.4511 17.5407 14.1065 17.3683C13.7619 17.196 13.6223 16.7769 13.7945 16.4323L16.5853 10.8509C16.7575 10.5063 17.1766 10.3666 17.5213 10.5389Z" fill="white"/>
<path fill-rule="evenodd" clip-rule="evenodd" d="M22.4789 10.5389C22.8235 10.3666 23.2425 10.5063 23.4149 10.8509L26.2056 16.4323C26.3779 16.7769 26.2382 17.196 25.8935 17.3683C25.5489 17.5407 25.1299 17.4009 24.9575 17.0563L22.1669 11.4749C21.9945 11.1303 22.1342 10.7112 22.4789 10.5389Z" fill="white"/>
<path fill-rule="evenodd" clip-rule="evenodd" d="M10.6976 16.0466C10.3123 16.0466 9.99997 16.359 9.99997 16.7443C9.99997 17.1296 10.3123 17.442 10.6976 17.442H11.0201L12.3889 27.3278C12.5641 28.5929 13.6457 29.535 14.9229 29.535H25.077C26.3542 29.535 27.4359 28.5929 27.611 27.3278L28.9799 17.442H29.3024C29.6876 17.442 30 17.1296 30 16.7443C30 16.359 29.6876 16.0466 29.3024 16.0466H10.6976Z" fill="white"/>
</svg>
