<svg width="90" height="90" viewBox="0 0 90 90" fill="none" xmlns="http://www.w3.org/2000/svg">
<path d="M71.9301 72.8408C71.6203 71.4117 70.8319 70.1311 69.6954 69.211C68.5589 68.2909 67.1423 67.7863 65.6801 67.7808H24.3201C22.8578 67.7863 21.4412 68.2909 20.3047 69.211C19.1682 70.1311 18.3798 71.4117 18.0701 72.8408L16.4301 80.5208H73.5701L71.9301 72.8408ZM29.7301 77.6808H27.7901C26.883 77.6808 26.0131 77.3204 25.3717 76.6791C24.7304 76.0377 24.3701 75.1678 24.3701 74.2608C24.3701 73.3537 24.7304 72.4838 25.3717 71.8425C26.0131 71.2011 26.883 70.8408 27.7901 70.8408H29.7301C30.6371 70.8408 31.507 71.2011 32.1484 71.8425C32.7897 72.4838 33.1501 73.3537 33.1501 74.2608C33.1501 75.1678 32.7897 76.0377 32.1484 76.6791C31.507 77.3204 30.6371 77.6808 29.7301 77.6808ZM45.9701 77.6808H44.0001C43.093 77.6808 42.2231 77.3204 41.5817 76.6791C40.9404 76.0377 40.5801 75.1678 40.5801 74.2608C40.5801 73.3537 40.9404 72.4838 41.5817 71.8425C42.2231 71.2011 43.093 70.8408 44.0001 70.8408H46.0001C46.9071 70.8408 47.777 71.2011 48.4184 71.8425C49.0597 72.4838 49.4201 73.3537 49.4201 74.2608C49.4201 75.1678 49.0597 76.0377 48.4184 76.6791C47.777 77.3204 46.9071 77.6808 46.0001 77.6808H45.9701ZM62.2101 77.6808H60.2701C59.363 77.6808 58.4931 77.3204 57.8517 76.6791C57.2104 76.0377 56.8501 75.1678 56.8501 74.2608C56.8501 73.3537 57.2104 72.4838 57.8517 71.8425C58.4931 71.2011 59.363 70.8408 60.2701 70.8408H62.2101C63.1171 70.8408 63.987 71.2011 64.6284 71.8425C65.2697 72.4838 65.6301 73.3537 65.6301 74.2608C65.6301 75.1678 65.2697 76.0377 64.6284 76.6791C63.987 77.3204 63.1171 77.6808 62.2101 77.6808Z" fill="#800404"/>
<path d="M58.4101 31.4707C58.7789 32.0855 58.9935 32.7805 59.0352 33.4962C59.077 34.2119 58.9449 34.9272 58.6501 35.5807L54.7901 44.2807C54.5049 44.8127 54.3324 45.3978 54.2836 45.9995C54.2347 46.6011 54.3104 47.2064 54.506 47.7775C54.7016 48.3485 55.0129 48.8731 55.4204 49.3184C55.8279 49.7638 56.3229 50.1203 56.8743 50.3657C57.4258 50.6111 58.022 50.7402 58.6256 50.7448C59.2293 50.7494 59.8273 50.6295 60.3825 50.3925C60.9377 50.1555 61.438 49.8066 61.8523 49.3675C62.2665 48.9285 62.5858 48.4087 62.7901 47.8407L66.6501 39.1407C67.5075 37.2251 67.8957 35.1327 67.7827 33.0371C67.6697 30.9414 67.0586 28.9029 66.0001 27.0907L63.6001 22.9007C63.1093 22.0955 62.8839 21.1565 62.9557 20.2162C63.0275 19.276 63.3928 18.3821 64.0001 17.6607L65.0001 16.3607C65.376 15.9073 65.6569 15.3829 65.826 14.8187C65.9951 14.2545 66.0489 13.6621 65.9843 13.0767C65.9196 12.4913 65.7379 11.9248 65.4498 11.4111C65.1617 10.8974 64.7731 10.4469 64.3073 10.0865C63.8415 9.72604 63.3079 9.46302 62.7384 9.31309C62.1688 9.16315 61.5749 9.12936 60.9919 9.21373C60.409 9.2981 59.8491 9.4989 59.3454 9.80418C58.8417 10.1095 58.4046 10.513 58.0601 10.9907L57.0601 12.2807C55.3821 14.3771 54.3795 16.9332 54.1849 19.6114C53.9903 22.2895 54.6128 24.9638 55.9701 27.2807L58.4101 31.4707Z" fill="#800404"/>
<path d="M42.27 31.4708C42.6389 32.0856 42.8534 32.7806 42.8952 33.4963C42.937 34.212 42.8048 34.9273 42.51 35.5808L38.65 44.2808C38.3648 44.8128 38.1924 45.3979 38.1435 45.9996C38.0946 46.6012 38.1704 47.2065 38.366 47.7776C38.5616 48.3486 38.8729 48.8732 39.2803 49.3186C39.6878 49.7639 40.1828 50.1204 40.7343 50.3658C41.2858 50.6112 41.882 50.7403 42.4856 50.7449C43.0892 50.7495 43.6873 50.6296 44.2425 50.3926C44.7976 50.1556 45.298 49.8067 45.7122 49.3677C46.1265 48.9286 46.4457 48.4088 46.65 47.8408L50.51 39.1408C51.3674 37.2252 51.7557 35.1328 51.6426 33.0372C51.5296 30.9415 50.9185 28.903 49.86 27.0908L47.46 22.9008C46.9809 22.0938 46.7648 21.1576 46.8419 20.2222C46.9189 19.2868 47.2853 18.3986 47.89 17.6808L48.89 16.3808C49.3043 15.9356 49.6217 15.4092 49.8218 14.8349C50.022 14.2607 50.1007 13.6511 50.0528 13.0448C50.005 12.4385 49.8317 11.8488 49.544 11.313C49.2563 10.7772 48.8604 10.307 48.3813 9.93232C47.9023 9.5576 47.3507 9.2865 46.7614 9.13619C46.1721 8.98588 45.558 8.95966 44.9581 9.05917C44.3581 9.15869 43.7854 9.38178 43.2762 9.7143C42.767 10.0468 42.3324 10.4815 42 10.9908L41 12.2808C39.322 14.3772 38.3195 16.9333 38.1249 19.6115C37.9303 22.2897 38.5527 24.9639 39.91 27.2808L42.27 31.4708Z" fill="#800404"/>
<path d="M26.1301 31.471C26.4989 32.0858 26.7135 32.7807 26.7552 33.4965C26.797 34.2122 26.6649 34.9274 26.3701 35.581L22.5101 44.281C22.2249 44.813 22.0524 45.3981 22.0036 45.9997C21.9547 46.6014 22.0304 47.2067 22.226 47.7777C22.4216 48.3488 22.7329 48.8734 23.1404 49.3187C23.5479 49.7641 24.0429 50.1206 24.5944 50.366C25.1458 50.6114 25.742 50.7404 26.3456 50.7451C26.9493 50.7497 27.5473 50.6297 28.1025 50.3928C28.6577 50.1558 29.158 49.8069 29.5723 49.3678C29.9865 48.9288 30.3058 48.409 30.5101 47.841L34.3701 39.141C35.2275 37.2254 35.6157 35.133 35.5027 33.0373C35.3897 30.9417 34.7786 28.9032 33.7201 27.091L31.3201 22.901C30.8403 22.0959 30.6239 21.1611 30.7009 20.2271C30.778 19.2931 31.1448 18.4065 31.7501 17.691L32.7501 16.391C33.126 15.9376 33.4069 15.4132 33.576 14.849C33.7451 14.2848 33.7989 13.6924 33.7343 13.1069C33.6696 12.5215 33.4879 11.9551 33.1998 11.4414C32.9117 10.9277 32.5231 10.4772 32.0573 10.1168C31.5915 9.75631 31.0579 9.4933 30.4884 9.34336C29.9188 9.19342 29.3249 9.15964 28.742 9.244C28.159 9.32837 27.5991 9.52918 27.0954 9.83446C26.5917 10.1397 26.1546 10.5433 25.8101 11.021L24.8101 12.311C23.1321 14.4073 22.1295 16.9635 21.9349 19.6416C21.7403 22.3198 22.3628 24.994 23.7201 27.311L26.1301 31.471Z" fill="#800404"/>
</svg>
